# Created with Anim8or 1.00
# Object "object01":

mtllib 12.mtl

# Shape "mesh03":
g mesh03
# No. points 8:
v -2.49881 5.37525 0
v -1.36427 8.43358 0
v -0.87099 6.41114 0
v -1.66023 3.79676 0
v -2.49881 5.37525 -1.2628
v -1.36427 8.43358 -1.2628
v -0.87099 6.41114 -1.2628
v -1.66023 3.79676 -1.2628

# No. normals 30:
vn 0 0 1
vn 0 0 1
vn 0 0 -1
vn 0 0 -1
vn 0.95733 -0.28900 0
vn -0.88311 -0.46916 0
vn -0.93757 0.34781 0
vn 0.97152 0.23696 0
vn 0 0 1
vn -0.93757 0.34781 0
vn -0.88311 -0.46916 0
vn 0 0 1
vn 0.97152 0.23696 0
vn -0.93757 0.34781 0
vn 0 0 1
vn 0.999636 -0.02697 0
vn 0 0 1
vn -0.88311 -0.46916 0
vn 0.95733 -0.28900 0
vn 0 0 -1
vn -0.93757 0.34781 0
vn -0.88311 -0.46916 0
vn 0 0 -1
vn 0.97152 0.23696 0
vn -0.93757 0.34781 0
vn 0 0 -1
vn 0.999636 -0.02697 0
vn 0 0 -1
vn -0.88311 -0.46916 0
vn 0.95733 -0.28900 0

# No. texture coordinates 0:

# No. faces 8:

usemtl ___default___

f 1//9 4//17 3//15
f 2//12 1//9 3//15
f 7//26 8//28 5//20
f 7//26 5//20 6//23
f 4//19 8//30 7//27 3//16
f 1//11 5//22 8//29 4//18
f 2//14 6//25 5//21 1//10
f 3//16 7//27 6//24 2//13

# End of Object "object01"
