# Created with Anim8or 1.00
# Object "object01":

mtllib 21.mtl

# Shape "mesh07":
g mesh07
# No. points 8:
v -5.65579 4.48735 0
v -5.70512 8.28559 -0.00001
v -4.12662 8.28559 -0.00001
v -4.57057 4.63534 -0.00001
v -5.6558 4.48735 -1.47038
v -5.70512 8.28559 -1.47039
v -4.12662 8.28559 -1.47039
v -4.57058 4.63534 -1.47039

# No. normals 32:
vn 0 0 1
vn 0 0 1
vn 0 0 -1
vn 0 0 -1
vn 0.13511 -0.99083 0
vn -0.999916 -0.01298 0
vn 0 1 0
vn 0.99269 -0.12073 0
vn 0 0 1
vn -0.999916 -0.01298 0
vn 0.13511 -0.99083 0
vn 0 0 1
vn 0 1 0
vn -0.999916 -0.01298 0
vn 0 0 1
vn 0.99269 -0.12073 0
vn 0 1 0
vn 0 0 1
vn 0.99269 -0.12073 0
vn 0.13511 -0.99083 0
vn 0 0 -1
vn -0.999916 -0.01298 0
vn 0.13511 -0.99083 0
vn 0 0 -1
vn 0 1 0
vn -0.999916 -0.01298 0
vn 0 0 -1
vn 0.99269 -0.12073 0
vn 0 1 0
vn 0 0 -1
vn 0.99269 -0.12073 0
vn 0.13511 -0.99083 0

# No. texture coordinates 0:

# No. faces 8:

usemtl ___default___

f 1//9 4//18 2//12
f 3//15 2//12 4//18
f 6//24 8//30 5//21
f 8//30 6//24 7//27
f 1//11 5//23 8//32 4//20
f 2//14 6//26 5//22 1//10
f 3//17 7//29 6//25 2//13
f 4//19 8//31 7//28 3//16

# End of Object "object01"
