# Created with Anim8or 1.00
# Object "object01":

mtllib 31.mtl

# Shape "mesh06":
g mesh06
# No. points 8:
v -8.07285 5.12861 0
v -7.92487 8.72954 0
v -6.54369 8.72954 0
v -6.59301 5.17794 0
v -8.07286 5.12861 -0.77267
v -7.92487 8.72954 -0.77268
v -6.54369 8.72954 -0.77268
v -6.59302 5.17794 -0.77268

# No. normals 32:
vn 0 0 1
vn 0 0 1
vn 0 0 -1
vn 0 0 -1
vn 0.03332 -0.999445 0
vn -0.999157 0.04106 0
vn 0 1 0
vn 0.999904 -0.01389 0
vn 0 0 1
vn -0.999157 0.04106 0
vn 0.03332 -0.999445 0
vn 0 0 1
vn 0 1 0
vn -0.999157 0.04106 0
vn 0 0 1
vn 0.999904 -0.01389 0
vn 0 1 0
vn 0 0 1
vn 0.999904 -0.01389 0
vn 0.03332 -0.999445 0
vn 0 0 -1
vn -0.999157 0.04106 0
vn 0.03332 -0.999445 0
vn 0 0 -1
vn 0 1 0
vn -0.999157 0.04106 0
vn 0 0 -1
vn 0.999904 -0.01389 0
vn 0 1 0
vn 0 0 -1
vn 0.999904 -0.01389 0
vn 0.03332 -0.999445 0

# No. texture coordinates 0:

# No. faces 8:

usemtl ___default___

f 1//9 4//18 2//12
f 3//15 2//12 4//18
f 6//24 8//30 5//21
f 8//30 6//24 7//27
f 1//11 5//23 8//32 4//20
f 2//14 6//26 5//22 1//10
f 3//17 7//29 6//25 2//13
f 4//19 8//31 7//28 3//16

# End of Object "object01"
