# Created with Anim8or 1.00
# Object "object01":

mtllib 42.mtl

# Shape "mesh09":
g mesh09
# No. points 8:
v -9.84866 7.89097 0
v -9.79933 12.4291 0
v -8.76344 12.4291 0
v -8.81277 7.64433 0
v -9.84866 7.89097 -0.62852
v -9.79933 12.4291 -0.62852
v -8.76344 12.4291 -0.62852
v -8.81277 7.64433 -0.62852

# No. normals 32:
vn 0 0 1
vn 0 0 1
vn 0 0 -1
vn 0 0 -1
vn 0 1 0
vn -0.999941 0.01087 0
vn -0.23162 -0.97281 0
vn 0.999947 -0.01031 0
vn 0 0 1
vn -0.23162 -0.97281 0
vn -0.999941 0.01087 0
vn 0 0 1
vn -0.999941 0.01087 0
vn 0 1 0
vn 0 0 1
vn 0.999947 -0.01031 0
vn 0 1 0
vn 0 0 1
vn 0.999947 -0.01031 0
vn -0.23162 -0.97281 0
vn 0 0 -1
vn -0.23162 -0.97281 0
vn -0.999941 0.01087 0
vn 0 0 -1
vn -0.999941 0.01087 0
vn 0 1 0
vn 0 0 -1
vn 0.999947 -0.01031 0
vn 0 1 0
vn 0 0 -1
vn 0.999947 -0.01031 0
vn -0.23162 -0.97281 0

# No. texture coordinates 0:

# No. faces 8:

usemtl ___default___

f 1//9 3//15 2//12
f 3//15 1//9 4//18
f 6//24 7//27 5//21
f 8//30 5//21 7//27
f 3//17 7//29 6//26 2//14
f 2//13 6//25 5//23 1//11
f 1//10 5//22 8//32 4//20
f 4//19 8//31 7//28 3//16

# End of Object "object01"
