# Created with Anim8or 1.00
# Object "object01":

mtllib 52.mtl

# Shape "mesh08":
g mesh08
# No. points 8:
v -12.8083 7.54568 0
v -12.4137 11.6399 0
v -11.5258 11.4426 0
v -11.3778 7.64433 0
v -12.8083 7.54567 -0.68041
v -12.4137 11.6399 -0.68042
v -11.5258 11.4426 -0.68042
v -11.3778 7.64433 -0.68042

# No. normals 32:
vn 0 0 1
vn 0 0 1
vn 0 0 -1
vn 0 0 -1
vn -0.99539 0.09594 0
vn 0.21693 0.97619 0
vn 0.06880 -0.99763 0
vn 0.999242 0.03893 0
vn 0 0 1
vn 0.06880 -0.99763 0
vn -0.99539 0.09594 0
vn 0 0 1
vn 0.21693 0.97619 0
vn -0.99539 0.09594 0
vn 0 0 1
vn 0.999242 0.03893 0
vn 0.21693 0.97619 0
vn 0 0 1
vn 0.999242 0.03893 0
vn 0.06880 -0.99763 0
vn 0 0 -1
vn 0.06880 -0.99763 0
vn -0.99539 0.09594 0
vn 0 0 -1
vn 0.21693 0.97619 0
vn -0.99539 0.09594 0
vn 0 0 -1
vn 0.999242 0.03893 0
vn 0.21693 0.97619 0
vn 0 0 -1
vn 0.999242 0.03893 0
vn 0.06880 -0.99763 0

# No. texture coordinates 0:

# No. faces 8:

usemtl ___default___

f 2//12 1//9 3//15
f 3//15 1//9 4//18
f 7//27 5//21 6//24
f 8//30 5//21 7//27
f 2//14 6//26 5//23 1//11
f 3//17 7//29 6//25 2//13
f 1//10 5//22 8//32 4//20
f 4//19 8//31 7//28 3//16

# End of Object "object01"
