# Created with Anim8or 1.00
# Object "object01":

mtllib palm.mtl

# Shape "mesh01":
g mesh01
# No. points 12:
v -13.1432 0.63406 0.00003
v -11.0892 -5.75614 0.00006
v -4.77505 -5.90829 0.00007
v -2.26461 1.3948 0.00009
v -4.47076 5.88316 0.00011
v -12.8389 4.66598 0.00013
v -13.1432 0.63406 -2.65819
v -11.0892 -5.75615 -2.65816
v -4.77504 -5.90829 -2.65814
v -2.2646 1.39481 -2.65813
v -4.47076 5.8832 -2.65811
v -12.8389 4.66604 -2.65809

# No. normals 48:
vn 0 0 1
vn -0.00001 -0.00001 1
vn -0.00001 0 1
vn 0.00001 -0.00003 1
vn 0 0 -1
vn 0.00001 0.00001 -1
vn 0.00001 0 -1
vn -0.00001 0.00003 -1
vn -0.02409 -0.99971 0
vn -0.95203 -0.30601 0
vn 0.89745 0.44112 0.00001
vn 0.94569 -0.32508 0
vn -0.14394 0.98959 0.00003
vn -0.99717 0.07524 0.00001
vn 0 -0.00001 1
vn -0.99306 -0.11757 0
vn 0 0 1
vn -0.95203 -0.30601 0
vn -0.02409 -0.99971 0
vn 0 0 1
vn 0.94569 -0.32508 0
vn -0.02409 -0.99971 0
vn -0.00001 0 1
vn 0.94569 -0.32508 0
vn 0.89745 0.44112 0.00001
vn 0 -0.00002 1
vn -0.14394 0.98959 0.00003
vn 0.89745 0.44112 0.00001
vn 0.00001 -0.00003 1
vn -0.99717 0.07524 0.00001
vn -0.14394 0.98959 0.00003
vn 0 0.00001 -1
vn -0.99306 -0.11757 0
vn 0 0 -1
vn -0.95203 -0.30601 0
vn -0.02409 -0.99971 0
vn 0 0 -1
vn 0.94569 -0.32508 0
vn -0.02409 -0.99971 0
vn 0.00001 0 -1
vn 0.94569 -0.32508 0
vn 0.89745 0.44112 0.00001
vn 0 0.00002 -1
vn -0.14394 0.98959 0.00003
vn 0.89745 0.44112 0.00001
vn -0.00001 0.00003 -1
vn -0.99717 0.07524 0.00001
vn -0.14394 0.98959 0.00003

# No. texture coordinates 0:

# No. faces 14:

usemtl ___default___

f 2//17 3//20 1//15
f 4//23 5//26 1//15
f 1//15 3//20 4//23
f 1//15 5//26 6//29
f 7//32 9//37 8//34
f 7//32 11//43 10//40
f 10//40 9//37 7//32
f 12//46 11//43 7//32
f 2//19 8//36 9//39 3//22
f 1//16 7//33 8//35 2//18
f 4//25 10//42 11//45 5//28
f 3//21 9//38 10//41 4//24
f 5//27 11//44 12//48 6//31
f 6//30 12//47 7//33 1//16

# End of Object "object01"
