# Created with Anim8or 1.00
# Object "object01":

mtllib wrist.mtl

# Shape "mesh12":
g mesh12
# No. points 8:
v -10.7877 -5.45488 -0.00002
v -13.9967 -28.6152 -0.00003
v -4.79175 -28.6913 -0.00004
v -5.62856 -4.57587 -0.00004
v -10.7877 -5.45488 -2.79086
v -13.9967 -28.6152 -2.79087
v -4.79176 -28.6913 -2.79088
v -5.62857 -4.57588 -2.79088

# No. normals 32:
vn 0 0 1
vn 0.00001 0 1
vn 0 0 -1
vn -0.00001 0 -1
vn -0.00826 -0.999966 0
vn -0.99054 0.13724 0
vn 0.999398 0.03468 -0.00001
vn -0.16796 0.98579 0
vn 0 0 1
vn -0.16796 0.98579 0
vn -0.99054 0.13724 0
vn 0 0 1
vn -0.99054 0.13724 0
vn -0.00826 -0.999966 0
vn 0 0 1
vn 0.999398 0.03468 -0.00001
vn -0.00826 -0.999966 0
vn 0.00001 0 1
vn -0.16796 0.98579 0
vn 0.999398 0.03468 -0.00001
vn 0 0 -1
vn -0.16796 0.98579 0
vn -0.99054 0.13724 0
vn 0 0 -1
vn -0.99054 0.13724 0
vn -0.00826 -0.999966 0
vn 0 0 -1
vn 0.999398 0.03468 -0.00001
vn -0.00826 -0.999966 0
vn -0.00001 0 -1
vn -0.16796 0.98579 0
vn 0.999398 0.03468 -0.00001

# No. texture coordinates 0:

# No. faces 8:

usemtl ___default___

f 1//9 2//12 3//15
f 1//9 3//15 4//18
f 7//27 6//24 5//21
f 8//30 7//27 5//21
f 2//14 6//26 7//29 3//17
f 1//11 5//23 6//25 2//13
f 3//16 7//28 8//32 4//20
f 4//19 8//31 5//22 1//10

# End of Object "object01"
